<svg xmlns="http://www.w3.org/2000/svg" version="1.1" viewBox="-5 -10 110 135" fill="#6bd3b0">
 <path d="m16.344 21.688v54.547c0 0.875-0.73438 1.6094-1.6094 1.6094h-9.5312c-1.3594 0-2.6719 0.54688-3.6875 1.5312-0.96875 0.98438-1.5 2.2969-1.5 3.6562 0 2.8906 2.3281 5.2344 5.1875 5.2344h94.797v-66.578zm32.062 53.062c0 1.4688-1.2031 2.6719-2.6719 2.6719h-13.609c-1.4688 0-2.6719-1.2031-2.6719-2.6719v-11.297c0-1.4688 1.2031-2.6719 2.6719-2.6719h13.609c1.4688 0 2.6719 1.2031 2.6719 2.6719zm0.20312-29.125c0.046875 1.4688-1.1094 2.6719-2.5781 2.6719h-13.609c-1.4688 0-2.7031-1.2031-2.7656-2.6719l-0.39062-11.297c-0.046875-1.4688 1.1094-2.6719 2.5781-2.6719h13.609c1.4688 0 2.7031 1.2031 2.7656 2.6719zm36.297 29.125c0 1.4688-1.2031 2.6719-2.6719 2.6719h-13.609c-1.4688 0-2.6719-1.2031-2.6719-2.6719v-11.297c0-1.4688 1.2031-2.6719 2.6719-2.6719h13.609c1.4688 0 2.6719 1.2031 2.6719 2.6719zm0-29.125c0 1.4688-1.2031 2.6719-2.6719 2.6719h-13.609c-1.4688 0-2.6719-1.2031-2.6719-2.6719v-11.297c0-1.4688 1.2031-2.6719 2.6719-2.6719h13.609c1.4688 0 2.6719 1.2031 2.6719 2.6719z"/>
 <path d="m13.125 11.719v62.891h-7.9219c-1.875 0-3.6875 0.60938-5.2031 1.7969v-54.672c0-5.5156 4.4844-10.016 10-10.016z"/>
</svg>
